<mxfile host="app.diagrams.net" modified="2023-06-13T10:13:11.896Z" agent="Mozilla/5.0 (Macintosh; Intel Mac OS X 10_15_7) AppleWebKit/537.36 (KHTML, like Gecko) Chrome/112.0.0.0 Safari/537.36" etag="y8os1TeMiXFxj-QcQRln" version="21.3.2" type="device" pages="2">
  <diagram name="process oobi" id="J5U5kI4o1ypKvfm6lR29">
    <mxGraphModel dx="2196" dy="854" grid="1" gridSize="10" guides="1" tooltips="1" connect="1" arrows="1" fold="1" page="1" pageScale="1" pageWidth="827" pageHeight="1169" math="0" shadow="0">
      <root>
        <mxCell id="0" />
        <mxCell id="1" parent="0" />
        <mxCell id="qSbOuLf-uEFTsbordUpv-124" style="edgeStyle=none;rounded=0;orthogonalLoop=1;jettySize=auto;html=1;entryX=0.5;entryY=0;entryDx=0;entryDy=0;strokeColor=#0B4D6A;" edge="1" parent="1" source="qSbOuLf-uEFTsbordUpv-2" target="qSbOuLf-uEFTsbordUpv-35">
          <mxGeometry relative="1" as="geometry" />
        </mxCell>
        <mxCell id="qSbOuLf-uEFTsbordUpv-2" value="check msg said" style="html=1;align=center;verticalAlign=top;rounded=1;absoluteArcSize=1;arcSize=10;dashed=0;whiteSpace=wrap;labelBackgroundColor=none;fillColor=#09555B;strokeColor=#BAC8D3;fontColor=#EEEEEE;" vertex="1" parent="1">
          <mxGeometry x="-300" y="120" width="140" height="40" as="geometry" />
        </mxCell>
        <mxCell id="qSbOuLf-uEFTsbordUpv-23" style="edgeStyle=orthogonalEdgeStyle;rounded=0;orthogonalLoop=1;jettySize=auto;html=1;entryX=0.5;entryY=0;entryDx=0;entryDy=0;strokeColor=#0B4D6A;" edge="1" parent="1" source="qSbOuLf-uEFTsbordUpv-5" target="qSbOuLf-uEFTsbordUpv-7">
          <mxGeometry relative="1" as="geometry" />
        </mxCell>
        <mxCell id="qSbOuLf-uEFTsbordUpv-5" value="parsed msg" style="html=1;align=center;verticalAlign=middle;rounded=0;absoluteArcSize=1;arcSize=10;dashed=0;whiteSpace=wrap;labelBackgroundColor=none;fillColor=#09555B;strokeColor=#BAC8D3;fontColor=#EEEEEE;" vertex="1" parent="1">
          <mxGeometry x="-270" y="220" width="80" height="60" as="geometry" />
        </mxCell>
        <mxCell id="qSbOuLf-uEFTsbordUpv-9" style="edgeStyle=orthogonalEdgeStyle;rounded=0;orthogonalLoop=1;jettySize=auto;html=1;labelBackgroundColor=none;strokeColor=#0B4D6A;fontColor=default;entryX=0;entryY=0.5;entryDx=0;entryDy=0;" edge="1" parent="1" source="qSbOuLf-uEFTsbordUpv-7" target="qSbOuLf-uEFTsbordUpv-39">
          <mxGeometry relative="1" as="geometry" />
        </mxCell>
        <mxCell id="qSbOuLf-uEFTsbordUpv-26" style="rounded=0;orthogonalLoop=1;jettySize=auto;html=1;entryX=0.5;entryY=0;entryDx=0;entryDy=0;strokeColor=#0B4D6A;" edge="1" parent="1" source="qSbOuLf-uEFTsbordUpv-7" target="qSbOuLf-uEFTsbordUpv-11">
          <mxGeometry relative="1" as="geometry" />
        </mxCell>
        <mxCell id="qSbOuLf-uEFTsbordUpv-7" value="" style="rhombus;labelBackgroundColor=none;fillColor=#09555B;strokeColor=#BAC8D3;fontColor=#EEEEEE;" vertex="1" parent="1">
          <mxGeometry x="-245" y="330" width="30" height="30" as="geometry" />
        </mxCell>
        <mxCell id="qSbOuLf-uEFTsbordUpv-100" style="edgeStyle=none;rounded=0;orthogonalLoop=1;jettySize=auto;html=1;strokeColor=#0B4D6A;" edge="1" parent="1" source="qSbOuLf-uEFTsbordUpv-8" target="qSbOuLf-uEFTsbordUpv-99">
          <mxGeometry relative="1" as="geometry" />
        </mxCell>
        <mxCell id="qSbOuLf-uEFTsbordUpv-8" value="maybe_update_backers" style="html=1;align=center;verticalAlign=top;rounded=1;absoluteArcSize=1;arcSize=10;dashed=0;whiteSpace=wrap;labelBackgroundColor=none;fillColor=#09555B;strokeColor=#BAC8D3;fontColor=#EEEEEE;" vertex="1" parent="1">
          <mxGeometry x="-30" y="440" width="140" height="40" as="geometry" />
        </mxCell>
        <mxCell id="qSbOuLf-uEFTsbordUpv-10" value="[rpy, r = /loc/scheme]" style="text;align=center;verticalAlign=middle;dashed=0;whiteSpace=wrap;labelBackgroundColor=none;fontColor=#EEEEEE;" vertex="1" parent="1">
          <mxGeometry x="-220" y="310" width="140" height="40" as="geometry" />
        </mxCell>
        <mxCell id="qSbOuLf-uEFTsbordUpv-14" style="rounded=0;orthogonalLoop=1;jettySize=auto;html=1;labelBackgroundColor=none;strokeColor=#0B4D6A;fontColor=default;entryX=0;entryY=0.5;entryDx=0;entryDy=0;" edge="1" parent="1" source="qSbOuLf-uEFTsbordUpv-11" target="qSbOuLf-uEFTsbordUpv-30">
          <mxGeometry relative="1" as="geometry">
            <mxPoint x="-70" y="585" as="targetPoint" />
          </mxGeometry>
        </mxCell>
        <mxCell id="qSbOuLf-uEFTsbordUpv-29" style="edgeStyle=orthogonalEdgeStyle;rounded=0;orthogonalLoop=1;jettySize=auto;html=1;entryX=0.5;entryY=0;entryDx=0;entryDy=0;strokeColor=#0B4D6A;" edge="1" parent="1" source="qSbOuLf-uEFTsbordUpv-11" target="qSbOuLf-uEFTsbordUpv-18">
          <mxGeometry relative="1" as="geometry" />
        </mxCell>
        <mxCell id="qSbOuLf-uEFTsbordUpv-11" value="" style="rhombus;labelBackgroundColor=none;fillColor=#09555B;strokeColor=#BAC8D3;fontColor=#EEEEEE;" vertex="1" parent="1">
          <mxGeometry x="-245" y="600" width="30" height="30" as="geometry" />
        </mxCell>
        <mxCell id="qSbOuLf-uEFTsbordUpv-12" value="maybe_update_kel" style="html=1;align=center;verticalAlign=top;rounded=1;absoluteArcSize=1;arcSize=10;dashed=0;whiteSpace=wrap;labelBackgroundColor=none;fillColor=#09555B;strokeColor=#BAC8D3;fontColor=#EEEEEE;" vertex="1" parent="1">
          <mxGeometry x="-40" y="740" width="140" height="40" as="geometry" />
        </mxCell>
        <mxCell id="qSbOuLf-uEFTsbordUpv-13" value="[est event&#xa;(icp, dip, rot, drt)]" style="text;align=center;verticalAlign=middle;dashed=0;whiteSpace=wrap;labelBackgroundColor=none;fontColor=#EEEEEE;" vertex="1" parent="1">
          <mxGeometry x="-205" y="570" width="110" height="40" as="geometry" />
        </mxCell>
        <mxCell id="qSbOuLf-uEFTsbordUpv-16" value="maybe_update_state" style="html=1;align=center;verticalAlign=top;rounded=1;absoluteArcSize=1;arcSize=10;dashed=0;whiteSpace=wrap;labelBackgroundColor=none;fillColor=#09555B;strokeColor=#BAC8D3;fontColor=#EEEEEE;" vertex="1" parent="1">
          <mxGeometry x="-40" y="1070" width="140" height="40" as="geometry" />
        </mxCell>
        <mxCell id="qSbOuLf-uEFTsbordUpv-82" style="edgeStyle=none;rounded=0;orthogonalLoop=1;jettySize=auto;html=1;entryX=0.5;entryY=0;entryDx=0;entryDy=0;strokeColor=#0B4D6A;exitX=0.5;exitY=1;exitDx=0;exitDy=0;" edge="1" parent="1" source="qSbOuLf-uEFTsbordUpv-18" target="qSbOuLf-uEFTsbordUpv-64">
          <mxGeometry relative="1" as="geometry">
            <mxPoint x="-237.5" y="1375" as="sourcePoint" />
          </mxGeometry>
        </mxCell>
        <mxCell id="qSbOuLf-uEFTsbordUpv-18" value="" style="rhombus;labelBackgroundColor=none;fillColor=#09555B;strokeColor=#BAC8D3;fontColor=#EEEEEE;" vertex="1" parent="1">
          <mxGeometry x="-245" y="1245" width="30" height="30" as="geometry" />
        </mxCell>
        <mxCell id="qSbOuLf-uEFTsbordUpv-20" style="rounded=0;orthogonalLoop=1;jettySize=auto;html=1;exitX=1;exitY=0.5;exitDx=0;exitDy=0;labelBackgroundColor=none;strokeColor=#0B4D6A;fontColor=default;entryX=0;entryY=0.5;entryDx=0;entryDy=0;" edge="1" parent="1" source="qSbOuLf-uEFTsbordUpv-18" target="qSbOuLf-uEFTsbordUpv-43">
          <mxGeometry relative="1" as="geometry">
            <mxPoint x="-222.5" y="1360" as="sourcePoint" />
            <mxPoint x="-47.5" y="1360" as="targetPoint" />
          </mxGeometry>
        </mxCell>
        <mxCell id="DF4tRONXU-9d1QsNTVrx-4" value="[non est event&lt;br style=&quot;padding: 0px; margin: 0px; font-size: 12px; background-color: rgb(42, 37, 47);&quot;&gt;&lt;span style=&quot;font-size: 12px; background-color: rgb(42, 37, 47);&quot;&gt;(ixn, etc)]&lt;/span&gt;" style="edgeLabel;html=1;align=center;verticalAlign=middle;resizable=0;points=[];fontColor=#EEEEEE;" vertex="1" connectable="0" parent="qSbOuLf-uEFTsbordUpv-20">
          <mxGeometry x="-0.1562" y="-1" relative="1" as="geometry">
            <mxPoint y="-21" as="offset" />
          </mxGeometry>
        </mxCell>
        <mxCell id="DF4tRONXU-9d1QsNTVrx-12" style="edgeStyle=none;rounded=0;orthogonalLoop=1;jettySize=auto;html=1;entryX=0.5;entryY=0;entryDx=0;entryDy=0;strokeColor=#0B4D6A;" edge="1" parent="1" source="qSbOuLf-uEFTsbordUpv-22" target="DF4tRONXU-9d1QsNTVrx-8">
          <mxGeometry relative="1" as="geometry" />
        </mxCell>
        <mxCell id="qSbOuLf-uEFTsbordUpv-22" value="maybe_update_kel" style="html=1;align=center;verticalAlign=top;rounded=1;absoluteArcSize=1;arcSize=10;dashed=0;whiteSpace=wrap;labelBackgroundColor=none;fillColor=#09555B;strokeColor=#BAC8D3;fontColor=#EEEEEE;" vertex="1" parent="1">
          <mxGeometry x="-50" y="1650" width="140" height="40" as="geometry" />
        </mxCell>
        <mxCell id="qSbOuLf-uEFTsbordUpv-33" value="" style="edgeStyle=none;rounded=0;orthogonalLoop=1;jettySize=auto;html=1;strokeColor=#0B4D6A;" edge="1" parent="1" source="qSbOuLf-uEFTsbordUpv-54" target="qSbOuLf-uEFTsbordUpv-12">
          <mxGeometry relative="1" as="geometry" />
        </mxCell>
        <mxCell id="qSbOuLf-uEFTsbordUpv-30" value="EventIntegrity.check_est_event" style="html=1;align=center;verticalAlign=top;rounded=1;absoluteArcSize=1;arcSize=10;dashed=0;whiteSpace=wrap;labelBackgroundColor=none;fillColor=#09555B;strokeColor=#BAC8D3;fontColor=#EEEEEE;" vertex="1" parent="1">
          <mxGeometry x="-40" y="595" width="180" height="40" as="geometry" />
        </mxCell>
        <mxCell id="qSbOuLf-uEFTsbordUpv-34" value="" style="edgeStyle=none;rounded=0;orthogonalLoop=1;jettySize=auto;html=1;strokeColor=#0B4D6A;" edge="1" parent="1" source="qSbOuLf-uEFTsbordUpv-30" target="qSbOuLf-uEFTsbordUpv-32">
          <mxGeometry relative="1" as="geometry">
            <mxPoint x="30" y="635" as="sourcePoint" />
            <mxPoint x="30" y="692" as="targetPoint" />
          </mxGeometry>
        </mxCell>
        <mxCell id="qSbOuLf-uEFTsbordUpv-106" style="edgeStyle=elbowEdgeStyle;rounded=0;orthogonalLoop=1;jettySize=auto;html=1;entryX=0.5;entryY=0;entryDx=0;entryDy=0;strokeColor=#0B4D6A;elbow=vertical;" edge="1" parent="1" source="qSbOuLf-uEFTsbordUpv-32" target="qSbOuLf-uEFTsbordUpv-101">
          <mxGeometry relative="1" as="geometry">
            <Array as="points">
              <mxPoint x="200" y="660" />
            </Array>
          </mxGeometry>
        </mxCell>
        <mxCell id="qSbOuLf-uEFTsbordUpv-107" value="[error]" style="edgeLabel;html=1;align=center;verticalAlign=middle;resizable=0;points=[];fontColor=#EEEEEE;" vertex="1" connectable="0" parent="qSbOuLf-uEFTsbordUpv-106">
          <mxGeometry x="-0.1708" y="-1" relative="1" as="geometry">
            <mxPoint x="3" y="-11" as="offset" />
          </mxGeometry>
        </mxCell>
        <mxCell id="qSbOuLf-uEFTsbordUpv-32" value="" style="rhombus;labelBackgroundColor=none;fillColor=#09555B;strokeColor=#BAC8D3;fontColor=#EEEEEE;" vertex="1" parent="1">
          <mxGeometry x="17.5" y="650" width="25" height="20" as="geometry" />
        </mxCell>
        <mxCell id="qSbOuLf-uEFTsbordUpv-36" value="" style="edgeStyle=none;rounded=0;orthogonalLoop=1;jettySize=auto;html=1;strokeColor=#0B4D6A;entryX=0.5;entryY=0;entryDx=0;entryDy=0;" edge="1" parent="1" source="qSbOuLf-uEFTsbordUpv-35" target="qSbOuLf-uEFTsbordUpv-5">
          <mxGeometry relative="1" as="geometry" />
        </mxCell>
        <mxCell id="qSbOuLf-uEFTsbordUpv-122" style="edgeStyle=none;rounded=0;orthogonalLoop=1;jettySize=auto;html=1;entryX=0;entryY=0.5;entryDx=0;entryDy=0;strokeColor=#0B4D6A;" edge="1" parent="1" source="qSbOuLf-uEFTsbordUpv-35" target="qSbOuLf-uEFTsbordUpv-121">
          <mxGeometry relative="1" as="geometry" />
        </mxCell>
        <mxCell id="qSbOuLf-uEFTsbordUpv-123" value="[error]" style="edgeLabel;html=1;align=center;verticalAlign=middle;resizable=0;points=[];fontColor=#EEEEEE;" vertex="1" connectable="0" parent="qSbOuLf-uEFTsbordUpv-122">
          <mxGeometry x="0.3163" y="-1" relative="1" as="geometry">
            <mxPoint as="offset" />
          </mxGeometry>
        </mxCell>
        <mxCell id="qSbOuLf-uEFTsbordUpv-35" value="" style="rhombus;labelBackgroundColor=none;fillColor=#09555B;strokeColor=#BAC8D3;fontColor=#EEEEEE;" vertex="1" parent="1">
          <mxGeometry x="-242.5" y="180" width="25" height="20" as="geometry" />
        </mxCell>
        <mxCell id="qSbOuLf-uEFTsbordUpv-69" style="edgeStyle=none;rounded=0;orthogonalLoop=1;jettySize=auto;html=1;entryX=0.5;entryY=0;entryDx=0;entryDy=0;strokeColor=#0B4D6A;" edge="1" parent="1" source="qSbOuLf-uEFTsbordUpv-39" target="qSbOuLf-uEFTsbordUpv-41">
          <mxGeometry relative="1" as="geometry" />
        </mxCell>
        <mxCell id="qSbOuLf-uEFTsbordUpv-39" value="EventIntegrity.check" style="html=1;align=center;verticalAlign=top;rounded=1;absoluteArcSize=1;arcSize=10;dashed=0;whiteSpace=wrap;labelBackgroundColor=none;fillColor=#09555B;strokeColor=#BAC8D3;fontColor=#EEEEEE;" vertex="1" parent="1">
          <mxGeometry x="-30" y="325" width="140" height="40" as="geometry" />
        </mxCell>
        <mxCell id="qSbOuLf-uEFTsbordUpv-71" style="edgeStyle=none;rounded=0;orthogonalLoop=1;jettySize=auto;html=1;entryX=0.5;entryY=0;entryDx=0;entryDy=0;strokeColor=#0B4D6A;" edge="1" parent="1" source="qSbOuLf-uEFTsbordUpv-41" target="qSbOuLf-uEFTsbordUpv-8">
          <mxGeometry relative="1" as="geometry" />
        </mxCell>
        <mxCell id="qSbOuLf-uEFTsbordUpv-72" value="[ok]" style="edgeLabel;html=1;align=center;verticalAlign=middle;resizable=0;points=[];fontColor=#EEEEEE;" vertex="1" connectable="0" parent="qSbOuLf-uEFTsbordUpv-71">
          <mxGeometry x="-0.0667" y="1" relative="1" as="geometry">
            <mxPoint x="12" y="-4" as="offset" />
          </mxGeometry>
        </mxCell>
        <mxCell id="qSbOuLf-uEFTsbordUpv-110" style="edgeStyle=elbowEdgeStyle;rounded=0;orthogonalLoop=1;jettySize=auto;html=1;entryX=0.5;entryY=0;entryDx=0;entryDy=0;strokeColor=#0B4D6A;elbow=vertical;" edge="1" parent="1" source="qSbOuLf-uEFTsbordUpv-41" target="qSbOuLf-uEFTsbordUpv-99">
          <mxGeometry relative="1" as="geometry">
            <Array as="points">
              <mxPoint x="120" y="400" />
            </Array>
          </mxGeometry>
        </mxCell>
        <mxCell id="qSbOuLf-uEFTsbordUpv-111" value="[error]" style="edgeLabel;html=1;align=center;verticalAlign=middle;resizable=0;points=[];fontColor=#EEEEEE;" vertex="1" connectable="0" parent="qSbOuLf-uEFTsbordUpv-110">
          <mxGeometry x="-0.1391" y="-3" relative="1" as="geometry">
            <mxPoint as="offset" />
          </mxGeometry>
        </mxCell>
        <mxCell id="qSbOuLf-uEFTsbordUpv-41" value="" style="rhombus;labelBackgroundColor=none;fillColor=#09555B;strokeColor=#BAC8D3;fontColor=#EEEEEE;" vertex="1" parent="1">
          <mxGeometry x="27.5" y="390" width="25" height="20" as="geometry" />
        </mxCell>
        <mxCell id="qSbOuLf-uEFTsbordUpv-87" style="edgeStyle=none;rounded=0;orthogonalLoop=1;jettySize=auto;html=1;entryX=0.496;entryY=-0.133;entryDx=0;entryDy=0;entryPerimeter=0;strokeColor=#0B4D6A;" edge="1" parent="1" source="qSbOuLf-uEFTsbordUpv-42" target="qSbOuLf-uEFTsbordUpv-47">
          <mxGeometry relative="1" as="geometry" />
        </mxCell>
        <mxCell id="qSbOuLf-uEFTsbordUpv-42" value="EventIntegrity.check" style="html=1;align=center;verticalAlign=top;rounded=1;absoluteArcSize=1;arcSize=10;dashed=0;whiteSpace=wrap;labelBackgroundColor=none;fillColor=#09555B;strokeColor=#BAC8D3;fontColor=#EEEEEE;" vertex="1" parent="1">
          <mxGeometry x="-50" y="1445" width="140" height="40" as="geometry" />
        </mxCell>
        <mxCell id="qSbOuLf-uEFTsbordUpv-85" style="edgeStyle=none;rounded=0;orthogonalLoop=1;jettySize=auto;html=1;entryX=0.5;entryY=0;entryDx=0;entryDy=0;strokeColor=#0B4D6A;exitX=0.5;exitY=1;exitDx=0;exitDy=0;" edge="1" parent="1" source="qSbOuLf-uEFTsbordUpv-43" target="qSbOuLf-uEFTsbordUpv-45">
          <mxGeometry relative="1" as="geometry">
            <mxPoint x="22.5" y="1380" as="sourcePoint" />
          </mxGeometry>
        </mxCell>
        <mxCell id="qSbOuLf-uEFTsbordUpv-43" value="get_state" style="html=1;align=center;verticalAlign=top;rounded=1;absoluteArcSize=1;arcSize=10;dashed=0;whiteSpace=wrap;labelBackgroundColor=none;fillColor=#09555B;strokeColor=#BAC8D3;fontColor=#EEEEEE;" vertex="1" parent="1">
          <mxGeometry x="-50" y="1240" width="140" height="40" as="geometry" />
        </mxCell>
        <mxCell id="qSbOuLf-uEFTsbordUpv-59" style="edgeStyle=none;rounded=0;orthogonalLoop=1;jettySize=auto;html=1;strokeColor=#0B4D6A;" edge="1" parent="1" source="qSbOuLf-uEFTsbordUpv-45" target="qSbOuLf-uEFTsbordUpv-51">
          <mxGeometry relative="1" as="geometry" />
        </mxCell>
        <mxCell id="qSbOuLf-uEFTsbordUpv-60" value="[state_empty]&amp;nbsp;" style="edgeLabel;html=1;align=center;verticalAlign=middle;resizable=0;points=[];fontColor=#EEEEEE;" vertex="1" connectable="0" parent="qSbOuLf-uEFTsbordUpv-59">
          <mxGeometry x="-0.4922" y="1" relative="1" as="geometry">
            <mxPoint x="18" y="-9" as="offset" />
          </mxGeometry>
        </mxCell>
        <mxCell id="qSbOuLf-uEFTsbordUpv-86" style="edgeStyle=none;rounded=0;orthogonalLoop=1;jettySize=auto;html=1;strokeColor=#0B4D6A;" edge="1" parent="1" source="qSbOuLf-uEFTsbordUpv-45">
          <mxGeometry relative="1" as="geometry">
            <mxPoint x="20" y="1390" as="targetPoint" />
          </mxGeometry>
        </mxCell>
        <mxCell id="qSbOuLf-uEFTsbordUpv-45" value="" style="rhombus;labelBackgroundColor=none;fillColor=#09555B;strokeColor=#BAC8D3;fontColor=#EEEEEE;" vertex="1" parent="1">
          <mxGeometry x="7.5" y="1320" width="25" height="20" as="geometry" />
        </mxCell>
        <mxCell id="qSbOuLf-uEFTsbordUpv-88" style="edgeStyle=none;rounded=0;orthogonalLoop=1;jettySize=auto;html=1;entryX=0.5;entryY=0;entryDx=0;entryDy=0;strokeColor=#0B4D6A;" edge="1" parent="1" source="qSbOuLf-uEFTsbordUpv-47" target="qSbOuLf-uEFTsbordUpv-61">
          <mxGeometry relative="1" as="geometry" />
        </mxCell>
        <mxCell id="qSbOuLf-uEFTsbordUpv-108" style="edgeStyle=elbowEdgeStyle;rounded=0;orthogonalLoop=1;jettySize=auto;html=1;entryX=0.5;entryY=0;entryDx=0;entryDy=0;strokeColor=#0B4D6A;elbow=vertical;" edge="1" parent="1" source="qSbOuLf-uEFTsbordUpv-47" target="qSbOuLf-uEFTsbordUpv-96">
          <mxGeometry relative="1" as="geometry">
            <Array as="points">
              <mxPoint x="190" y="1540" />
            </Array>
          </mxGeometry>
        </mxCell>
        <mxCell id="qSbOuLf-uEFTsbordUpv-109" value="[error]" style="edgeLabel;html=1;align=center;verticalAlign=middle;resizable=0;points=[];fontColor=#EEEEEE;" vertex="1" connectable="0" parent="qSbOuLf-uEFTsbordUpv-108">
          <mxGeometry x="-0.1701" y="3" relative="1" as="geometry">
            <mxPoint as="offset" />
          </mxGeometry>
        </mxCell>
        <mxCell id="qSbOuLf-uEFTsbordUpv-47" value="" style="rhombus;labelBackgroundColor=none;fillColor=#09555B;strokeColor=#BAC8D3;fontColor=#EEEEEE;" vertex="1" parent="1">
          <mxGeometry x="7.5" y="1530" width="25" height="20" as="geometry" />
        </mxCell>
        <mxCell id="qSbOuLf-uEFTsbordUpv-50" value="" style="edgeStyle=orthogonalEdgeStyle;rounded=0;orthogonalLoop=1;jettySize=auto;html=1;entryX=0.5;entryY=0;entryDx=0;entryDy=0;labelBackgroundColor=none;strokeColor=#0B4D6A;fontColor=default;" edge="1" parent="1" source="qSbOuLf-uEFTsbordUpv-12" target="qSbOuLf-uEFTsbordUpv-48">
          <mxGeometry relative="1" as="geometry">
            <mxPoint x="30" y="780" as="sourcePoint" />
            <mxPoint x="30" y="818" as="targetPoint" />
          </mxGeometry>
        </mxCell>
        <mxCell id="qSbOuLf-uEFTsbordUpv-104" style="edgeStyle=elbowEdgeStyle;rounded=0;orthogonalLoop=1;jettySize=auto;html=1;entryX=0.5;entryY=1;entryDx=0;entryDy=0;strokeColor=#0B4D6A;" edge="1" parent="1" source="qSbOuLf-uEFTsbordUpv-48" target="qSbOuLf-uEFTsbordUpv-101">
          <mxGeometry relative="1" as="geometry">
            <mxPoint x="339.9999999999727" y="808" as="targetPoint" />
            <Array as="points">
              <mxPoint x="355" y="760" />
            </Array>
          </mxGeometry>
        </mxCell>
        <mxCell id="qSbOuLf-uEFTsbordUpv-105" value="[not_updated]" style="edgeLabel;html=1;align=center;verticalAlign=middle;resizable=0;points=[];fontColor=#EEEEEE;" vertex="1" connectable="0" parent="qSbOuLf-uEFTsbordUpv-104">
          <mxGeometry x="-0.1202" y="-1" relative="1" as="geometry">
            <mxPoint as="offset" />
          </mxGeometry>
        </mxCell>
        <mxCell id="qSbOuLf-uEFTsbordUpv-48" value="" style="rhombus;labelBackgroundColor=none;fillColor=#09555B;strokeColor=#BAC8D3;fontColor=#EEEEEE;" vertex="1" parent="1">
          <mxGeometry x="17.5" y="798" width="25" height="20" as="geometry" />
        </mxCell>
        <mxCell id="DF4tRONXU-9d1QsNTVrx-52" style="edgeStyle=elbowEdgeStyle;rounded=0;orthogonalLoop=1;jettySize=auto;html=1;entryX=0.5;entryY=0;entryDx=0;entryDy=0;strokeColor=#0B4D6A;" edge="1" parent="1" source="qSbOuLf-uEFTsbordUpv-51" target="qSbOuLf-uEFTsbordUpv-96">
          <mxGeometry relative="1" as="geometry">
            <Array as="points">
              <mxPoint x="345" y="1490" />
            </Array>
          </mxGeometry>
        </mxCell>
        <mxCell id="qSbOuLf-uEFTsbordUpv-51" value="EventEscrow.store" style="html=1;align=center;verticalAlign=top;rounded=1;absoluteArcSize=1;arcSize=10;dashed=0;whiteSpace=wrap;labelBackgroundColor=none;fillColor=#09555B;strokeColor=#BAC8D3;fontColor=#EEEEEE;" vertex="1" parent="1">
          <mxGeometry x="150" y="1310" width="100" height="40" as="geometry" />
        </mxCell>
        <mxCell id="qSbOuLf-uEFTsbordUpv-52" value="EvntEscrow.store" style="html=1;align=center;verticalAlign=top;rounded=1;absoluteArcSize=1;arcSize=10;dashed=0;whiteSpace=wrap;labelBackgroundColor=none;fillColor=#09555B;strokeColor=#BAC8D3;fontColor=#EEEEEE;" vertex="1" parent="1">
          <mxGeometry x="150" y="1580" width="140" height="40" as="geometry" />
        </mxCell>
        <mxCell id="qSbOuLf-uEFTsbordUpv-102" style="edgeStyle=none;rounded=0;orthogonalLoop=1;jettySize=auto;html=1;entryX=0;entryY=0.5;entryDx=0;entryDy=0;strokeColor=#0B4D6A;" edge="1" parent="1" source="qSbOuLf-uEFTsbordUpv-53" target="qSbOuLf-uEFTsbordUpv-101">
          <mxGeometry relative="1" as="geometry" />
        </mxCell>
        <mxCell id="qSbOuLf-uEFTsbordUpv-53" value="EventEscrow.store" style="html=1;align=center;verticalAlign=top;rounded=1;absoluteArcSize=1;arcSize=10;dashed=0;whiteSpace=wrap;labelBackgroundColor=none;fillColor=#09555B;strokeColor=#BAC8D3;fontColor=#EEEEEE;" vertex="1" parent="1">
          <mxGeometry x="140" y="680" width="140" height="40" as="geometry" />
        </mxCell>
        <mxCell id="qSbOuLf-uEFTsbordUpv-55" value="" style="edgeStyle=none;rounded=0;orthogonalLoop=1;jettySize=auto;html=1;strokeColor=#0B4D6A;" edge="1" parent="1" source="qSbOuLf-uEFTsbordUpv-32" target="qSbOuLf-uEFTsbordUpv-54">
          <mxGeometry relative="1" as="geometry">
            <mxPoint x="30" y="670" as="sourcePoint" />
            <mxPoint x="30" y="740" as="targetPoint" />
          </mxGeometry>
        </mxCell>
        <mxCell id="qSbOuLf-uEFTsbordUpv-56" style="edgeStyle=none;rounded=0;orthogonalLoop=1;jettySize=auto;html=1;entryX=0;entryY=0.5;entryDx=0;entryDy=0;strokeColor=#0B4D6A;" edge="1" parent="1" source="qSbOuLf-uEFTsbordUpv-54" target="qSbOuLf-uEFTsbordUpv-53">
          <mxGeometry relative="1" as="geometry" />
        </mxCell>
        <mxCell id="qSbOuLf-uEFTsbordUpv-57" value="out_of_order" style="edgeLabel;html=1;align=center;verticalAlign=middle;resizable=0;points=[];fontColor=#EEEEEE;" vertex="1" connectable="0" parent="qSbOuLf-uEFTsbordUpv-56">
          <mxGeometry x="-0.5824" relative="1" as="geometry">
            <mxPoint x="17" y="-10" as="offset" />
          </mxGeometry>
        </mxCell>
        <mxCell id="qSbOuLf-uEFTsbordUpv-54" value="" style="rhombus;labelBackgroundColor=none;fillColor=#09555B;strokeColor=#BAC8D3;fontColor=#EEEEEE;" vertex="1" parent="1">
          <mxGeometry x="17.5" y="690" width="25" height="20" as="geometry" />
        </mxCell>
        <mxCell id="qSbOuLf-uEFTsbordUpv-62" style="edgeStyle=none;rounded=0;orthogonalLoop=1;jettySize=auto;html=1;entryX=0;entryY=0.5;entryDx=0;entryDy=0;strokeColor=#0B4D6A;" edge="1" parent="1" source="qSbOuLf-uEFTsbordUpv-61" target="qSbOuLf-uEFTsbordUpv-52">
          <mxGeometry relative="1" as="geometry" />
        </mxCell>
        <mxCell id="qSbOuLf-uEFTsbordUpv-63" value="out_of_order" style="edgeLabel;html=1;align=center;verticalAlign=middle;resizable=0;points=[];fontColor=#EEEEEE;" vertex="1" connectable="0" parent="qSbOuLf-uEFTsbordUpv-62">
          <mxGeometry x="-0.4496" y="-1" relative="1" as="geometry">
            <mxPoint x="15" y="-11" as="offset" />
          </mxGeometry>
        </mxCell>
        <mxCell id="qSbOuLf-uEFTsbordUpv-89" style="edgeStyle=none;rounded=0;orthogonalLoop=1;jettySize=auto;html=1;entryX=0.5;entryY=0;entryDx=0;entryDy=0;strokeColor=#0B4D6A;" edge="1" parent="1" source="qSbOuLf-uEFTsbordUpv-61" target="qSbOuLf-uEFTsbordUpv-22">
          <mxGeometry relative="1" as="geometry" />
        </mxCell>
        <mxCell id="qSbOuLf-uEFTsbordUpv-61" value="" style="rhombus;labelBackgroundColor=none;fillColor=#09555B;strokeColor=#BAC8D3;fontColor=#EEEEEE;" vertex="1" parent="1">
          <mxGeometry x="7.5" y="1590" width="25" height="20" as="geometry" />
        </mxCell>
        <mxCell id="qSbOuLf-uEFTsbordUpv-64" value="" style="ellipse;html=1;shape=endState;fillColor=strokeColor;strokeColor=#BAC8D3;fontColor=#EEEEEE;" vertex="1" parent="1">
          <mxGeometry x="-245" y="1500" width="30" height="30" as="geometry" />
        </mxCell>
        <mxCell id="qSbOuLf-uEFTsbordUpv-81" value="" style="edgeStyle=none;rounded=0;orthogonalLoop=1;jettySize=auto;html=1;strokeColor=#0B4D6A;" edge="1" parent="1" source="qSbOuLf-uEFTsbordUpv-77" target="qSbOuLf-uEFTsbordUpv-64">
          <mxGeometry relative="1" as="geometry" />
        </mxCell>
        <mxCell id="qSbOuLf-uEFTsbordUpv-77" value="E" style="ellipse;strokeColor=#BAC8D3;fontColor=#EEEEEE;fillColor=#09555B;" vertex="1" parent="1">
          <mxGeometry x="-410" y="1500" width="30" height="30" as="geometry" />
        </mxCell>
        <mxCell id="qSbOuLf-uEFTsbordUpv-95" value="" style="edgeStyle=none;rounded=0;orthogonalLoop=1;jettySize=auto;html=1;strokeColor=#0B4D6A;exitX=1;exitY=0.5;exitDx=0;exitDy=0;" edge="1" target="qSbOuLf-uEFTsbordUpv-96" parent="1" source="qSbOuLf-uEFTsbordUpv-52">
          <mxGeometry relative="1" as="geometry">
            <mxPoint x="340.00000000000045" y="1600" as="targetPoint" />
            <mxPoint x="300" y="1600" as="sourcePoint" />
          </mxGeometry>
        </mxCell>
        <mxCell id="qSbOuLf-uEFTsbordUpv-96" value="E" style="ellipse;strokeColor=#BAC8D3;fontColor=#EEEEEE;fillColor=#09555B;" vertex="1" parent="1">
          <mxGeometry x="330" y="1585" width="30" height="30" as="geometry" />
        </mxCell>
        <mxCell id="qSbOuLf-uEFTsbordUpv-99" value="E" style="ellipse;strokeColor=#BAC8D3;fontColor=#EEEEEE;fillColor=#09555B;" vertex="1" parent="1">
          <mxGeometry x="170" y="445" width="30" height="30" as="geometry" />
        </mxCell>
        <mxCell id="qSbOuLf-uEFTsbordUpv-101" value="E" style="ellipse;strokeColor=#BAC8D3;fontColor=#EEEEEE;fillColor=#09555B;" vertex="1" parent="1">
          <mxGeometry x="340" y="685" width="30" height="30" as="geometry" />
        </mxCell>
        <mxCell id="qSbOuLf-uEFTsbordUpv-117" value="" style="edgeStyle=elbowEdgeStyle;rounded=0;orthogonalLoop=1;jettySize=auto;html=1;strokeColor=#0B4D6A;exitX=1;exitY=0.5;exitDx=0;exitDy=0;entryX=0.5;entryY=1;entryDx=0;entryDy=0;" edge="1" parent="1" source="qSbOuLf-uEFTsbordUpv-16" target="qSbOuLf-uEFTsbordUpv-101">
          <mxGeometry relative="1" as="geometry">
            <mxPoint x="339.9999999999727" y="1020" as="targetPoint" />
            <Array as="points">
              <mxPoint x="355" y="830" />
            </Array>
          </mxGeometry>
        </mxCell>
        <mxCell id="qSbOuLf-uEFTsbordUpv-120" style="edgeStyle=none;rounded=0;orthogonalLoop=1;jettySize=auto;html=1;strokeColor=#0B4D6A;" edge="1" parent="1" source="qSbOuLf-uEFTsbordUpv-118" target="qSbOuLf-uEFTsbordUpv-2">
          <mxGeometry relative="1" as="geometry" />
        </mxCell>
        <mxCell id="qSbOuLf-uEFTsbordUpv-118" value="" style="ellipse;fillColor=strokeColor;html=1;strokeColor=#BAC8D3;fontColor=#EEEEEE;" vertex="1" parent="1">
          <mxGeometry x="-410" y="125" width="30" height="30" as="geometry" />
        </mxCell>
        <mxCell id="qSbOuLf-uEFTsbordUpv-121" value="E" style="ellipse;strokeColor=#BAC8D3;fontColor=#EEEEEE;fillColor=#09555B;" vertex="1" parent="1">
          <mxGeometry x="-125" y="175" width="30" height="30" as="geometry" />
        </mxCell>
        <mxCell id="DF4tRONXU-9d1QsNTVrx-5" style="edgeStyle=none;rounded=0;orthogonalLoop=1;jettySize=auto;html=1;strokeColor=#0B4D6A;entryX=0.5;entryY=0;entryDx=0;entryDy=0;" edge="1" parent="1" source="qSbOuLf-uEFTsbordUpv-113" target="DF4tRONXU-9d1QsNTVrx-54">
          <mxGeometry relative="1" as="geometry">
            <mxPoint x="30" y="1000" as="targetPoint" />
          </mxGeometry>
        </mxCell>
        <mxCell id="qSbOuLf-uEFTsbordUpv-113" value="check Escrow and update kel" style="html=1;align=center;verticalAlign=top;rounded=1;absoluteArcSize=1;arcSize=10;dashed=0;whiteSpace=wrap;strokeColor=#BAC8D3;fontColor=#EEEEEE;fillColor=#09555B;" vertex="1" parent="1">
          <mxGeometry x="-30" y="930" width="120" height="40" as="geometry" />
        </mxCell>
        <mxCell id="DF4tRONXU-9d1QsNTVrx-6" style="edgeStyle=elbowEdgeStyle;rounded=0;orthogonalLoop=1;jettySize=auto;html=1;entryX=0.5;entryY=1;entryDx=0;entryDy=0;strokeColor=#0B4D6A;" edge="1" parent="1" source="DF4tRONXU-9d1QsNTVrx-8" target="qSbOuLf-uEFTsbordUpv-96">
          <mxGeometry relative="1" as="geometry">
            <mxPoint x="329.9999999999727" y="1745" as="targetPoint" />
            <Array as="points">
              <mxPoint x="345" y="1700" />
            </Array>
          </mxGeometry>
        </mxCell>
        <mxCell id="DF4tRONXU-9d1QsNTVrx-7" value="[not_updated]" style="edgeLabel;html=1;align=center;verticalAlign=middle;resizable=0;points=[];fontColor=#EEEEEE;" vertex="1" connectable="0" parent="DF4tRONXU-9d1QsNTVrx-6">
          <mxGeometry x="-0.1202" y="-1" relative="1" as="geometry">
            <mxPoint x="-37" y="-1" as="offset" />
          </mxGeometry>
        </mxCell>
        <mxCell id="DF4tRONXU-9d1QsNTVrx-8" value="" style="rhombus;labelBackgroundColor=none;fillColor=#09555B;strokeColor=#BAC8D3;fontColor=#EEEEEE;" vertex="1" parent="1">
          <mxGeometry x="7.5" y="1720" width="25" height="20" as="geometry" />
        </mxCell>
        <mxCell id="DF4tRONXU-9d1QsNTVrx-10" value="" style="edgeStyle=orthogonalEdgeStyle;rounded=0;orthogonalLoop=1;jettySize=auto;html=1;entryX=0.5;entryY=0;entryDx=0;entryDy=0;labelBackgroundColor=none;strokeColor=#0B4D6A;fontColor=default;" edge="1" parent="1" source="DF4tRONXU-9d1QsNTVrx-8" target="DF4tRONXU-9d1QsNTVrx-40">
          <mxGeometry relative="1" as="geometry">
            <mxPoint x="20" y="1755" as="sourcePoint" />
            <mxPoint x="20" y="1797" as="targetPoint" />
          </mxGeometry>
        </mxCell>
        <mxCell id="DF4tRONXU-9d1QsNTVrx-59" value="[updated]" style="edgeLabel;html=1;align=center;verticalAlign=middle;resizable=0;points=[];fontColor=#EEEEEE;" vertex="1" connectable="0" parent="DF4tRONXU-9d1QsNTVrx-10">
          <mxGeometry x="-0.1203" relative="1" as="geometry">
            <mxPoint as="offset" />
          </mxGeometry>
        </mxCell>
        <mxCell id="DF4tRONXU-9d1QsNTVrx-16" value="E" style="ellipse;html=1;strokeColor=#BAC8D3;fontColor=#EEEEEE;fillColor=#09555B;" vertex="1" parent="1">
          <mxGeometry x="-130" y="1797" width="30" height="30" as="geometry" />
        </mxCell>
        <mxCell id="DF4tRONXU-9d1QsNTVrx-17" value="" style="endArrow=open;html=1;rounded=0;align=center;verticalAlign=top;endFill=0;labelBackgroundColor=none;endSize=6;strokeColor=#0B4D6A;exitX=0;exitY=0.5;exitDx=0;exitDy=0;entryX=1;entryY=0.5;entryDx=0;entryDy=0;" edge="1" target="DF4tRONXU-9d1QsNTVrx-16" parent="1" source="DF4tRONXU-9d1QsNTVrx-40">
          <mxGeometry relative="1" as="geometry">
            <mxPoint x="-10" y="1812" as="sourcePoint" />
            <mxPoint x="-90" y="1780" as="targetPoint" />
          </mxGeometry>
        </mxCell>
        <mxCell id="DF4tRONXU-9d1QsNTVrx-24" value="res&lt;br&gt;[{:ok, {sn, d}} | :noop]" style="html=1;rounded=0;strokeColor=#BAC8D3;fontColor=#EEEEEE;fillColor=#09555B;" vertex="1" parent="1">
          <mxGeometry x="-30" y="830" width="120" height="30" as="geometry" />
        </mxCell>
        <mxCell id="DF4tRONXU-9d1QsNTVrx-25" value="" style="endArrow=open;html=1;rounded=0;align=center;verticalAlign=top;endFill=0;labelBackgroundColor=none;endSize=6;strokeColor=#0B4D6A;exitX=0.5;exitY=1;exitDx=0;exitDy=0;" edge="1" target="DF4tRONXU-9d1QsNTVrx-24" parent="1" source="qSbOuLf-uEFTsbordUpv-48">
          <mxGeometry relative="1" as="geometry">
            <mxPoint y="815" as="sourcePoint" />
            <Array as="points">
              <mxPoint x="30" y="830" />
            </Array>
          </mxGeometry>
        </mxCell>
        <mxCell id="DF4tRONXU-9d1QsNTVrx-26" value="" style="endArrow=open;html=1;rounded=0;align=center;verticalAlign=top;endFill=0;labelBackgroundColor=none;endSize=6;strokeColor=#0B4D6A;entryX=0.5;entryY=0;entryDx=0;entryDy=0;" edge="1" source="DF4tRONXU-9d1QsNTVrx-24" parent="1" target="DF4tRONXU-9d1QsNTVrx-27">
          <mxGeometry relative="1" as="geometry">
            <mxPoint x="130" y="815" as="targetPoint" />
          </mxGeometry>
        </mxCell>
        <mxCell id="DF4tRONXU-9d1QsNTVrx-32" style="edgeStyle=none;rounded=0;orthogonalLoop=1;jettySize=auto;html=1;entryX=0.5;entryY=0;entryDx=0;entryDy=0;strokeColor=#0B4D6A;" edge="1" parent="1" source="DF4tRONXU-9d1QsNTVrx-27" target="qSbOuLf-uEFTsbordUpv-113">
          <mxGeometry relative="1" as="geometry" />
        </mxCell>
        <mxCell id="DF4tRONXU-9d1QsNTVrx-33" value="[updated]" style="edgeLabel;html=1;align=center;verticalAlign=middle;resizable=0;points=[];fontColor=#EEEEEE;" vertex="1" connectable="0" parent="DF4tRONXU-9d1QsNTVrx-32">
          <mxGeometry x="-0.2237" y="2" relative="1" as="geometry">
            <mxPoint x="-4" as="offset" />
          </mxGeometry>
        </mxCell>
        <mxCell id="DF4tRONXU-9d1QsNTVrx-27" value="" style="rhombus;labelBackgroundColor=none;fillColor=#09555B;strokeColor=#BAC8D3;fontColor=#EEEEEE;" vertex="1" parent="1">
          <mxGeometry x="17.5" y="875" width="25" height="20" as="geometry" />
        </mxCell>
        <mxCell id="DF4tRONXU-9d1QsNTVrx-28" style="edgeStyle=elbowEdgeStyle;rounded=0;orthogonalLoop=1;jettySize=auto;html=1;strokeColor=#0B4D6A;exitX=1;exitY=0.5;exitDx=0;exitDy=0;entryX=0.5;entryY=1;entryDx=0;entryDy=0;" edge="1" parent="1" source="DF4tRONXU-9d1QsNTVrx-27" target="qSbOuLf-uEFTsbordUpv-101">
          <mxGeometry relative="1" as="geometry">
            <mxPoint x="170" y="879.47" as="sourcePoint" />
            <mxPoint x="339.9999999999727" y="885.0000000000002" as="targetPoint" />
            <Array as="points">
              <mxPoint x="355" y="860" />
            </Array>
          </mxGeometry>
        </mxCell>
        <mxCell id="DF4tRONXU-9d1QsNTVrx-29" value=":noop" style="edgeLabel;html=1;align=center;verticalAlign=middle;resizable=0;points=[];fontColor=#EEEEEE;" vertex="1" connectable="0" parent="DF4tRONXU-9d1QsNTVrx-28">
          <mxGeometry x="-0.1202" y="-1" relative="1" as="geometry">
            <mxPoint as="offset" />
          </mxGeometry>
        </mxCell>
        <mxCell id="DF4tRONXU-9d1QsNTVrx-39" value="check Escrow and update kel" style="html=1;align=center;verticalAlign=top;rounded=1;absoluteArcSize=1;arcSize=10;dashed=0;whiteSpace=wrap;strokeColor=#BAC8D3;fontColor=#EEEEEE;fillColor=#09555B;" vertex="1" parent="1">
          <mxGeometry x="-40" y="1930" width="120" height="40" as="geometry" />
        </mxCell>
        <mxCell id="DF4tRONXU-9d1QsNTVrx-40" value="res&lt;br&gt;[{:ok, {sn, d}} | :noop]" style="html=1;rounded=0;strokeColor=#BAC8D3;fontColor=#EEEEEE;fillColor=#09555B;" vertex="1" parent="1">
          <mxGeometry x="-40" y="1797" width="120" height="30" as="geometry" />
        </mxCell>
        <mxCell id="DF4tRONXU-9d1QsNTVrx-42" value="" style="endArrow=open;html=1;rounded=0;align=center;verticalAlign=top;endFill=0;labelBackgroundColor=none;endSize=6;strokeColor=#0B4D6A;entryX=0.5;entryY=0;entryDx=0;entryDy=0;" edge="1" parent="1" source="DF4tRONXU-9d1QsNTVrx-40" target="DF4tRONXU-9d1QsNTVrx-45">
          <mxGeometry relative="1" as="geometry">
            <mxPoint x="90" y="1872" as="targetPoint" />
          </mxGeometry>
        </mxCell>
        <mxCell id="DF4tRONXU-9d1QsNTVrx-43" style="edgeStyle=none;rounded=0;orthogonalLoop=1;jettySize=auto;html=1;entryX=0.5;entryY=0;entryDx=0;entryDy=0;strokeColor=#0B4D6A;" edge="1" parent="1" source="DF4tRONXU-9d1QsNTVrx-45" target="DF4tRONXU-9d1QsNTVrx-39">
          <mxGeometry relative="1" as="geometry" />
        </mxCell>
        <mxCell id="DF4tRONXU-9d1QsNTVrx-44" value="[updated]" style="edgeLabel;html=1;align=center;verticalAlign=middle;resizable=0;points=[];fontColor=#EEEEEE;" vertex="1" connectable="0" parent="DF4tRONXU-9d1QsNTVrx-43">
          <mxGeometry x="-0.2237" y="2" relative="1" as="geometry">
            <mxPoint x="-4" as="offset" />
          </mxGeometry>
        </mxCell>
        <mxCell id="DF4tRONXU-9d1QsNTVrx-45" value="" style="rhombus;labelBackgroundColor=none;fillColor=#09555B;strokeColor=#BAC8D3;fontColor=#EEEEEE;" vertex="1" parent="1">
          <mxGeometry x="7.5" y="1870" width="25" height="20" as="geometry" />
        </mxCell>
        <mxCell id="DF4tRONXU-9d1QsNTVrx-46" style="edgeStyle=elbowEdgeStyle;rounded=0;orthogonalLoop=1;jettySize=auto;html=1;strokeColor=#0B4D6A;exitX=0;exitY=0.5;exitDx=0;exitDy=0;entryX=0.5;entryY=1;entryDx=0;entryDy=0;elbow=vertical;" edge="1" parent="1" source="DF4tRONXU-9d1QsNTVrx-45" target="DF4tRONXU-9d1QsNTVrx-16">
          <mxGeometry relative="1" as="geometry">
            <mxPoint x="130" y="1879.47" as="sourcePoint" />
            <mxPoint x="-130.00000000002728" y="1885" as="targetPoint" />
            <Array as="points">
              <mxPoint x="-40" y="1880" />
              <mxPoint x="-40" y="1890" />
            </Array>
          </mxGeometry>
        </mxCell>
        <mxCell id="DF4tRONXU-9d1QsNTVrx-47" value=":noop" style="edgeLabel;html=1;align=center;verticalAlign=middle;resizable=0;points=[];fontColor=#EEEEEE;" vertex="1" connectable="0" parent="DF4tRONXU-9d1QsNTVrx-46">
          <mxGeometry x="-0.1202" y="-1" relative="1" as="geometry">
            <mxPoint as="offset" />
          </mxGeometry>
        </mxCell>
        <mxCell id="DF4tRONXU-9d1QsNTVrx-50" value="" style="endArrow=open;html=1;rounded=0;align=center;verticalAlign=top;endFill=0;labelBackgroundColor=none;endSize=6;strokeColor=#0B4D6A;exitX=0;exitY=0.5;exitDx=0;exitDy=0;entryX=0.5;entryY=1;entryDx=0;entryDy=0;edgeStyle=elbowEdgeStyle;elbow=vertical;" edge="1" target="DF4tRONXU-9d1QsNTVrx-16" parent="1" source="DF4tRONXU-9d1QsNTVrx-39">
          <mxGeometry relative="1" as="geometry">
            <mxPoint x="-60" y="1983" as="sourcePoint" />
            <mxPoint x="-99.99999999997249" y="1950" as="targetPoint" />
            <Array as="points">
              <mxPoint x="-90" y="1950" />
            </Array>
          </mxGeometry>
        </mxCell>
        <mxCell id="DF4tRONXU-9d1QsNTVrx-56" style="edgeStyle=none;rounded=0;orthogonalLoop=1;jettySize=auto;html=1;entryX=0.5;entryY=0;entryDx=0;entryDy=0;strokeColor=#0B4D6A;" edge="1" parent="1" source="DF4tRONXU-9d1QsNTVrx-54" target="qSbOuLf-uEFTsbordUpv-16">
          <mxGeometry relative="1" as="geometry" />
        </mxCell>
        <mxCell id="DF4tRONXU-9d1QsNTVrx-54" value="last updated event&lt;br&gt;" style="html=1;rounded=0;strokeColor=#BAC8D3;fontColor=#EEEEEE;fillColor=#09555B;" vertex="1" parent="1">
          <mxGeometry x="-20" y="1000" width="100" height="30" as="geometry" />
        </mxCell>
        <mxCell id="DF4tRONXU-9d1QsNTVrx-58" style="edgeStyle=none;rounded=0;orthogonalLoop=1;jettySize=auto;html=1;entryX=0.5;entryY=0;entryDx=0;entryDy=0;strokeColor=#0B4D6A;" edge="1" parent="1" source="DF4tRONXU-9d1QsNTVrx-57" target="qSbOuLf-uEFTsbordUpv-42">
          <mxGeometry relative="1" as="geometry" />
        </mxCell>
        <mxCell id="DF4tRONXU-9d1QsNTVrx-57" value="KeyState" style="html=1;rounded=0;strokeColor=#BAC8D3;fontColor=#EEEEEE;fillColor=#09555B;" vertex="1" parent="1">
          <mxGeometry x="-30" y="1370" width="100" height="30" as="geometry" />
        </mxCell>
      </root>
    </mxGraphModel>
  </diagram>
  <diagram id="XLl_msjx24aAIhPrYVW7" name="state data">
    <mxGraphModel dx="954" dy="623" grid="1" gridSize="10" guides="1" tooltips="1" connect="1" arrows="1" fold="1" page="1" pageScale="1" pageWidth="827" pageHeight="1169" math="0" shadow="0">
      <root>
        <mxCell id="0" />
        <mxCell id="1" parent="0" />
        <mxCell id="6HjZlrH1ueShJehWfiOB-9" value="State" style="swimlane;childLayout=stackLayout;horizontal=1;startSize=50;horizontalStack=0;rounded=1;fontSize=14;fontStyle=0;strokeWidth=2;resizeParent=0;resizeLast=1;shadow=0;dashed=0;align=center;arcSize=4;whiteSpace=wrap;html=1;strokeColor=#BAC8D3;fontColor=#EEEEEE;fillColor=#09555B;" vertex="1" parent="1">
          <mxGeometry x="100" y="135" width="160" height="160" as="geometry">
            <mxRectangle x="200" y="170" width="70" height="50" as="alternateBounds" />
          </mxGeometry>
        </mxCell>
        <mxCell id="6HjZlrH1ueShJehWfiOB-10" value="+prefix&lt;br&gt;+sn&lt;br&gt;+state" style="align=left;strokeColor=none;fillColor=none;spacingLeft=4;fontSize=12;verticalAlign=top;resizable=0;rotatable=0;part=1;html=1;fontColor=#EEEEEE;" vertex="1" parent="6HjZlrH1ueShJehWfiOB-9">
          <mxGeometry y="50" width="160" height="110" as="geometry" />
        </mxCell>
        <mxCell id="6HjZlrH1ueShJehWfiOB-11" value="State" style="swimlane;childLayout=stackLayout;horizontal=1;startSize=50;horizontalStack=0;rounded=1;fontSize=14;fontStyle=0;strokeWidth=2;resizeParent=0;resizeLast=1;shadow=0;dashed=0;align=center;arcSize=4;whiteSpace=wrap;html=1;strokeColor=#BAC8D3;fontColor=#EEEEEE;fillColor=#09555B;" vertex="1" parent="1">
          <mxGeometry x="100" y="340" width="160" height="150" as="geometry">
            <mxRectangle x="200" y="170" width="70" height="50" as="alternateBounds" />
          </mxGeometry>
        </mxCell>
        <mxCell id="6HjZlrH1ueShJehWfiOB-12" value="+k&lt;br&gt;+kt&lt;br&gt;+n&lt;br&gt;+nt&lt;br&gt;+bt&lt;br&gt;+b" style="align=left;strokeColor=none;fillColor=none;spacingLeft=4;fontSize=12;verticalAlign=top;resizable=0;rotatable=0;part=1;html=1;fontColor=#EEEEEE;" vertex="1" parent="6HjZlrH1ueShJehWfiOB-11">
          <mxGeometry y="50" width="160" height="100" as="geometry" />
        </mxCell>
        <mxCell id="6HjZlrH1ueShJehWfiOB-14" value="Backers" style="swimlane;childLayout=stackLayout;horizontal=1;startSize=50;horizontalStack=0;rounded=1;fontSize=14;fontStyle=0;strokeWidth=2;resizeParent=0;resizeLast=1;shadow=0;dashed=0;align=center;arcSize=4;whiteSpace=wrap;html=1;strokeColor=#BAC8D3;fontColor=#EEEEEE;fillColor=#09555B;" vertex="1" parent="1">
          <mxGeometry x="350" y="160" width="190" height="110" as="geometry">
            <mxRectangle x="200" y="170" width="70" height="50" as="alternateBounds" />
          </mxGeometry>
        </mxCell>
        <mxCell id="6HjZlrH1ueShJehWfiOB-15" value="+prefix_scheme:&amp;nbsp; {prerix, scheme}&lt;br&gt;+endpoint" style="align=left;strokeColor=none;fillColor=none;spacingLeft=4;fontSize=12;verticalAlign=top;resizable=0;rotatable=0;part=1;html=1;fontColor=#EEEEEE;" vertex="1" parent="6HjZlrH1ueShJehWfiOB-14">
          <mxGeometry y="50" width="190" height="60" as="geometry" />
        </mxCell>
        <mxCell id="6HjZlrH1ueShJehWfiOB-16" value="Endpoint" style="swimlane;childLayout=stackLayout;horizontal=1;startSize=50;horizontalStack=0;rounded=1;fontSize=14;fontStyle=0;strokeWidth=2;resizeParent=0;resizeLast=1;shadow=0;dashed=0;align=center;arcSize=4;whiteSpace=wrap;html=1;strokeColor=#BAC8D3;fontColor=#EEEEEE;fillColor=#09555B;" vertex="1" parent="1">
          <mxGeometry x="360" y="320" width="160" height="100" as="geometry">
            <mxRectangle x="200" y="170" width="70" height="50" as="alternateBounds" />
          </mxGeometry>
        </mxCell>
        <mxCell id="6HjZlrH1ueShJehWfiOB-17" value="+said&lt;br&gt;+URL&lt;br&gt;+dt" style="align=left;strokeColor=none;fillColor=none;spacingLeft=4;fontSize=12;verticalAlign=top;resizable=0;rotatable=0;part=1;html=1;fontColor=#EEEEEE;" vertex="1" parent="6HjZlrH1ueShJehWfiOB-16">
          <mxGeometry y="50" width="160" height="50" as="geometry" />
        </mxCell>
        <mxCell id="6HjZlrH1ueShJehWfiOB-20" value="KEL" style="swimlane;childLayout=stackLayout;horizontal=1;startSize=50;horizontalStack=0;rounded=1;fontSize=14;fontStyle=0;strokeWidth=2;resizeParent=0;resizeLast=1;shadow=0;dashed=0;align=center;arcSize=4;whiteSpace=wrap;html=1;strokeColor=#BAC8D3;fontColor=#EEEEEE;fillColor=#09555B;" vertex="1" parent="1">
          <mxGeometry x="580" y="155" width="160" height="130" as="geometry">
            <mxRectangle x="200" y="170" width="70" height="50" as="alternateBounds" />
          </mxGeometry>
        </mxCell>
        <mxCell id="6HjZlrH1ueShJehWfiOB-21" value="+key: {pref, sn}&lt;br&gt;+event" style="align=left;strokeColor=none;fillColor=none;spacingLeft=4;fontSize=12;verticalAlign=top;resizable=0;rotatable=0;part=1;html=1;fontColor=#EEEEEE;" vertex="1" parent="6HjZlrH1ueShJehWfiOB-20">
          <mxGeometry y="50" width="160" height="80" as="geometry" />
        </mxCell>
      </root>
    </mxGraphModel>
  </diagram>
</mxfile>
